<?xml version="1.0" encoding="UTF-8"?>
<svg width="25px" height="7px" version="1.1" viewBox="0 0 25 7" xmlns="http://www.w3.org/2000/svg">
<title>Arrow</title>
<desc>Created with Sketch.</desc>
<g fill="none" fill-rule="evenodd">
<g transform="translate(-1384 -78)" fill="#fff">
<g transform="translate(20 20)">
<g transform="translate(1190 38)">
<path d="m193 22.132v-1.1315c0-0.19742 0.058438-0.39043 0.16795-0.5547 0.30635-0.45953 0.92722-0.5837 1.3868-0.27735l3.1972 2.1315c0.10985 0.073235 0.20412 0.1675 0.27735 0.27735 0.30635 0.45953 0.18218 1.0804-0.27735 1.3868l-3.1972 2.1315c-0.16427 0.10951-0.35728 0.16795-0.5547 0.16795-0.55228 0-1-0.44772-1-1v-1.1315h-18c-0.55228 0-1-0.44772-1-1 0-0.55228 0.44772-1 1-1h18z"/>
</g>
</g>
</g>
</g>
</svg>