<svg xmlns="http://www.w3.org/2000/svg" width="41" height="42"><path d="M38.795 19.069c-1.857 8.463-5.74 17.512-7.393 21.156a1.14 1.14 0 0 1-1.921.249l-9.127-10.752-8.91 10.677a1.14 1.14 0 0 1-1.94-.202c-3.61-7.683-17.196-38.96.99-38.96 4.245 0 11.96 3.168 11.96 3.168m-6.727 6.673c2.435-3.23 8.385-9.84 16.3-9.84 1.754 0 3.159.374 4.267 1.048M29.849 18.68l-.683-3.136-7.254.798 6.3-3.688-2.404-6.132m8.617 3.15l-1.295 2.957 6.79 3.67-7.714-.77-2.042 9.847M38.36 3.843c.99 2.313 1.582 6.65 1.327 9.365M25.807 6.52l4.854 4.33 9.086-8.27" stroke-width="2" stroke="#D6AE4D" fill="none" fill-rule="evenodd" stroke-linecap="round" stroke-linejoin="round"/></svg>