<?xml version="1.0" encoding="UTF-8"?>
<svg width="41px" height="42px" viewBox="0 0 41 42" version="1.1" xmlns="http://www.w3.org/2000/svg" xmlns:xlink="http://www.w3.org/1999/xlink">
    <!-- Generator: Sketch 51.3 (57544) - http://www.bohemiancoding.com/sketch -->
    <title>Cosmetic Dentistry </title>
    <desc>Created with Sketch.</desc>
    <defs></defs>
    <g id="Page-1" stroke="none" stroke-width="1" fill="none" fill-rule="evenodd" stroke-linecap="round" stroke-linejoin="round">
        <g id="Home-Final---2" transform="translate(-468.000000, -1134.000000)" stroke="#D6AE4D" stroke-width="2">
            <g id="Our-Services" transform="translate(20.000000, 920.000000)">
                <g id="1" transform="translate(368.000000, 185.000000)">
                    <g id="Cosmetic-Dentistry-" transform="translate(81.000000, 30.000000)">
                        <path d="M37.794759,18.0693647 C35.9373253,26.5328941 32.0551807,35.5813647 30.4021446,39.2251294 C30.0520843,39.9964235 29.0150602,40.1300706 28.4808072,39.4736 L19.3533976,28.7216 L10.4444819,39.3987765 C9.92714458,40.0830118 8.86944578,39.9733647 8.5043494,39.1968941 C4.8933253,31.5136 -8.69136145,0.235482353 9.49485542,0.235482353 C13.739747,0.235482353 21.4546988,3.40348235 21.4546988,3.40348235" id="Stroke-1"></path>
                        <path d="M14.7277627,10.0760471 C17.1626783,6.84592941 23.1127627,0.235105882 31.028353,0.235105882 C32.7824133,0.235105882 34.1878229,0.608282353 35.294859,1.28263529" id="Stroke-3"></path>
                        <polyline id="Stroke-5" points="28.8485349 17.6802353 28.1653301 14.5437647 20.9108602 15.3418824 27.2119446 11.6538824 24.8075711 5.52164706"></polyline>
                        <polyline id="Stroke-7" points="33.4245976 8.67294118 32.1291398 11.6291765 38.9188988 15.2992941 31.2044169 14.5284706 29.1627904 24.3755294"></polyline>
                        <path d="M37.3613892,2.84305882 C38.3528349,5.15552941 38.9434735,9.49341176 38.6883289,12.2087059" id="Stroke-9"></path>
                        <polyline id="Stroke-11" points="24.8074301 5.52164706 29.6617554 9.85247059 38.7478157 1.58094118"></polyline>
                    </g>
                </g>
            </g>
        </g>
    </g>
</svg>