<svg xmlns="http://www.w3.org/2000/svg" width="42" height="42"><path d="M2.806 22.57C.063 11.995-.07 1.24 10.739 1.24c4.353 0 12.252 3.265 12.252 3.265m-6.885 6.813C18.603 8.01 24.705 1.24 32.824 1.24c8.563 0 9.02 8.653 6.983 18.068m-11.935 19.28l-3.9 1.732a7.58 7.58 0 0 1-6.143 0l-3.9-1.732M2.807 22.57c18.922 5.398 36.168 0 36.168 0M4.467 28.177c17.184 4.903 32.847 0 32.847 0m-13.155 7.17c6.637-.4 11.107-1.8 11.107-1.8m-28.75 0c3.86 1.102 7.632 1.637 11.107 1.826" stroke-width="2" stroke="#D6AE4D" fill="none" fill-rule="evenodd" stroke-linecap="round" stroke-linejoin="round"/></svg>