<?xml version="1.0" encoding="UTF-8"?>
<svg width="42px" height="42px" viewBox="0 0 42 42" version="1.1" xmlns="http://www.w3.org/2000/svg" xmlns:xlink="http://www.w3.org/1999/xlink">
    <!-- Generator: Sketch 51.3 (57544) - http://www.bohemiancoding.com/sketch -->
    <title>Dental Implants</title>
    <desc>Created with Sketch.</desc>
    <defs></defs>
    <g id="Page-1" stroke="none" stroke-width="1" fill="none" fill-rule="evenodd" stroke-linecap="round" stroke-linejoin="round">
        <g id="Home-Final---2" transform="translate(-715.000000, -1406.000000)" stroke="#D6AE4D" stroke-width="2">
            <g id="Our-Services" transform="translate(20.000000, 920.000000)">
                <g id="5" transform="translate(616.000000, 457.000000)">
                    <g id="Dental-Implants" transform="translate(80.000000, 30.000000)">
                        <path d="M1.80626506,21.5711807 C-0.93686747,10.9947952 -1.06891566,0.241060241 9.73879518,0.241060241 C14.0920482,0.241060241 21.9903614,3.50612048 21.9903614,3.50612048" id="Stroke-1"></path>
                        <path d="M15.1053976,10.3188916 C17.602747,7.01093976 23.7053976,0.240819277 31.8239518,0.240819277 C40.3868434,0.240819277 40.8441928,8.89383133 38.8066024,18.309253" id="Stroke-3"></path>
                        <path d="M26.8718554,37.5887711 L22.9619759,39.3213012 C21.0063133,40.1878072 18.774988,40.1878072 16.8193253,39.3213012 L12.9094458,37.5887711" id="Stroke-5"></path>
                        <path d="M1.8066506,21.5710843 C20.7285783,26.9696386 37.9748434,21.5710843 37.9748434,21.5710843" id="Stroke-7"></path>
                        <path d="M3.46727711,27.1773976 C20.6513735,32.0805301 36.3140241,27.1773976 36.3140241,27.1773976" id="Stroke-9"></path>
                        <path d="M23.1586024,34.3473735 C29.7952289,33.9459277 34.2660723,32.5464096 34.2660723,32.5464096" id="Stroke-11"></path>
                        <path d="M5.51542169,32.546506 C9.37518072,33.6477108 13.1477108,34.1836145 16.6228916,34.3720482" id="Stroke-13"></path>
                    </g>
                </g>
            </g>
        </g>
    </g>
</svg>