<?xml version="1.0" encoding="UTF-8"?>
<svg width="16px" height="12px" viewBox="0 0 16 12" version="1.1" xmlns="http://www.w3.org/2000/svg" xmlns:xlink="http://www.w3.org/1999/xlink">
    <!-- Generator: Sketch 51.3 (57544) - http://www.bohemiancoding.com/sketch -->
    <title>Email</title>
    <desc>Created with Sketch.</desc>
    <defs></defs>
    <g id="Page-1" stroke="none" stroke-width="1" fill="none" fill-rule="evenodd">
        <g id="Home-Final---2" transform="translate(-789.000000, -844.000000)" fill="#D4CFC2" fill-rule="nonzero">
            <g id="Book-Appointment" transform="translate(20.000000, 780.000000)">
                <g id="Form" transform="translate(528.000000, 46.000000)">
                    <g id="2" transform="translate(221.000000, 0.000000)">
                        <path d="M35,18 L21,18 C20.4477153,18 20,18.4477153 20,19 L20,19.5793333 C20,19.7826667 20.0926667,19.9746667 20.2513333,20.1006667 L27.3873333,25.7846667 C27.7452457,26.0719959 28.2547543,26.0719959 28.6126667,25.7846667 L35.7486667,20.1013333 C35.9073333,19.9746667 36,19.7826667 36,19.58 L36,19 C36,18.4477153 35.5522847,18 35,18 M36,21.4453333 L36,29 C36,29.5522847 35.5522847,30 35,30 L21,30 C20.4477153,30 20,29.5522847 20,29 L20,21.4453333 C19.9999262,21.3172172 20.0732861,21.2003959 20.188717,21.1448129 C20.3041478,21.0892298 20.4412203,21.1047222 20.5413333,21.1846667 L24.5933333,24.412 C24.664427,24.4688164 24.7091988,24.5522305 24.7172566,24.6428809 C24.7253144,24.7335312 24.6959575,24.8235346 24.636,24.892 L21.3333333,28.6666667 L25.2226667,25.2633333 C25.3439455,25.1570867 25.523884,25.1528759 25.65,25.2533333 L26.972,26.3066667 C27.2746667,26.5466667 27.6373333,26.6673333 28,26.6673333 C28.3626667,26.6673333 28.7253333,26.5466667 29.028,26.3066667 L30.35,25.2533333 C30.476207,25.1531468 30.6559509,25.157353 30.7773333,25.2633333 L34.6666667,28.6666667 L31.364,24.892 C31.3041182,24.8234485 31.2748743,24.7333908 31.2830584,24.6427368 C31.2912424,24.5520827 31.3361424,24.4687185 31.4073333,24.412 L35.4586667,21.1846667 C35.5587797,21.1047222 35.6958522,21.0892298 35.811283,21.1448129 C35.9267139,21.2003959 36.0000738,21.3172172 36,21.4453333" id="Email"></path>
                    </g>
                </g>
            </g>
        </g>
    </g>
</svg>