<svg xmlns="http://www.w3.org/2000/svg" width="16" height="12"><path d="M15 0H1a1 1 0 0 0-1 1v.579c0 .204.093.396.25.52l7.136 5.684a.98.98 0 0 0 1.225 0l7.136-5.683A.67.67 0 0 0 16 1.58V1a1 1 0 0 0-1-1m1 3.445V11a1 1 0 0 1-1 1H1a1 1 0 0 1-1-1V3.445c0-.128.073-.245.189-.3s.253-.04.353.04l4.052 3.228c.07.057.116.14.124.23s-.02.18-.08.249l-3.303 3.774 3.889-3.403c.12-.106.3-.1.427-.01l1.322 1.053a1.65 1.65 0 0 0 2.056 0l1.322-1.053c.126-.1.306-.096.427.01l3.889 3.403-3.303-3.774c-.06-.07-.09-.16-.08-.25s.053-.174.124-.23l4.05-3.228c.1-.08.237-.095.353-.04s.189.172.189.3" fill="#D4CFC2" fill-rule="nonzero"/></svg>