<svg xmlns="http://www.w3.org/2000/svg" width="41" height="42"><g stroke-width="2" stroke="#D6AE4D" fill="none" fill-rule="evenodd" stroke-linecap="round" stroke-linejoin="round"><path d="M24.792 34.625l-4.013-5.005-9.334 10.778a1.14 1.14 0 0 1-1.94-.202c-3.61-7.683-17.196-38.962.99-38.962 4.245 0 12.148 3.296 12.148 3.296m14.606 20.38c-1.975 6.486-4.572 12.505-5.846 15.313a1.14 1.14 0 0 1-1.922.248l-2.144-2.674m-11.805-26.82c3.519-3.91 10.052-9.743 16.497-9.743 9.27 0 8.797 10.416 6.069 20.703m-14 18.047s8.606-14.186 4.86-28.62"/><path d="M10.98 18.534c5.199 2.608 17.12 7.34 28.78 3.128m-12.244-10.04l.487-3.263 2.305 2.356M16.662 12l-3.038 1.273.818-3.195m-4.343 9.705l-1.818-2.75 3.287.206"/></g></svg>