<?xml version="1.0" encoding="UTF-8"?>
<svg width="41px" height="42px" viewBox="0 0 41 42" version="1.1" xmlns="http://www.w3.org/2000/svg" xmlns:xlink="http://www.w3.org/1999/xlink">
    <!-- Generator: Sketch 51.3 (57544) - http://www.bohemiancoding.com/sketch -->
    <title>General Dentistry</title>
    <desc>Created with Sketch.</desc>
    <defs></defs>
    <g id="Page-1" stroke="none" stroke-width="1" fill="none" fill-rule="evenodd" stroke-linecap="round" stroke-linejoin="round">
        <g id="Home-Final---2" transform="translate(-1211.000000, -1134.000000)" stroke="#D6AE4D" stroke-width="2">
            <g id="Our-Services" transform="translate(20.000000, 920.000000)">
                <g id="4" transform="translate(1111.000000, 185.000000)">
                    <g id="General-Dentistry" transform="translate(81.000000, 30.000000)">
                        <path d="M23.7920675,33.6256941 L19.7788265,28.6205176 L10.4446699,39.3988706 C9.92733253,40.0831059 8.86963373,39.9734588 8.50453735,39.1969882 C4.89351325,31.5136941 -8.69164337,0.235105882 9.49504337,0.235105882 C13.7399349,0.235105882 21.6428386,3.53110588 21.6428386,3.53110588" id="Stroke-1"></path>
                        <path d="M36.2485265,23.9128 C34.2736229,30.3989176 31.6761289,36.4172706 30.4022855,39.2252706 C30.0522253,39.9965647 29.0152012,40.1302118 28.4804783,39.4732706 L26.3364181,36.7989176" id="Stroke-3"></path>
                        <path d="M14.5316819,9.97821176 C18.0510795,6.06762353 24.5833446,0.235152941 31.028212,0.235152941 C40.2979952,0.235152941 39.8252964,10.6511529 37.0976458,20.9382118" id="Stroke-5"></path>
                        <path d="M23.107547,38.9849882 C23.107547,38.9849882 31.7138602,24.7991059 27.9684506,10.3642824" id="Stroke-7"></path>
                        <path d="M9.98075783,17.5340235 C15.1799747,20.1424941 27.1008181,24.8747294 38.7604084,20.6620235" id="Stroke-9"></path>
                        <polyline id="Stroke-11" points="26.5166169 10.6228235 27.003412 7.36023529 29.3081711 9.71694118"></polyline>
                        <polyline id="Stroke-13" points="15.6621651 11.0104471 12.6239241 12.2833882 13.4419843 9.08856471"></polyline>
                        <polyline id="Stroke-15" points="9.09879398 18.7931294 7.28036024 16.0430118 10.5676373 16.2486588"></polyline>
                    </g>
                </g>
            </g>
        </g>
    </g>
</svg>