<svg xmlns="http://www.w3.org/2000/svg" width="40" height="42"><g stroke-width="2" stroke="#D6AE4D" fill="none" fill-rule="evenodd" stroke-linecap="round" stroke-linejoin="round"><path d="M38.027 7.095c3.36 8.528-4.82 27.409-7.405 32.994-.34.737-1.352.864-1.872.237l-8.48-10.365-9.095 10.294c-.504.653-1.535.548-1.9-.193-3.52-7.338-16.755-37.21.965-37.21 4.136 0 11.64 3.03 11.64 3.03M15.35 12.25c2.372-3.085 8.17-9.4 15.883-9.4"/><path d="M18.662 22.785c0-.434 4.63-8.45 14.599-15.553m-2.08-2.248l3.827 4.132m0 0l3.02-2.02m-6.847-2.11l5.619-3.76m-17.3 16.67a1.26 1.26 0 0 0-1.753.121L16.5 19.422a1.26 1.26 0 0 1-1.753.121l-.266-.26a1.26 1.26 0 0 0-1.753.12c-.45.509-.395 1.28.123 1.722l.266.26c.518.442.574 1.213.123 1.722l-1.243 1.405c-.45.509-.395 1.279.123 1.72a1.26 1.26 0 0 0 1.753-.121l1.243-1.405a1.26 1.26 0 0 1 1.753-.121l.85.743a1.26 1.26 0 0 0 1.754-.121c.45-.51.395-1.28-.123-1.722l-.656-.574"/></g></svg>