<?xml version="1.0" encoding="UTF-8"?>
<svg width="40px" height="42px" viewBox="0 0 40 42" version="1.1" xmlns="http://www.w3.org/2000/svg" xmlns:xlink="http://www.w3.org/1999/xlink">
    <!-- Generator: Sketch 51.3 (57544) - http://www.bohemiancoding.com/sketch -->
    <title>Gum Disease Treatment</title>
    <desc>Created with Sketch.</desc>
    <defs></defs>
    <g id="Page-1" stroke="none" stroke-width="1" fill="none" fill-rule="evenodd" stroke-linecap="round" stroke-linejoin="round">
        <g id="Home-Final---2" transform="translate(-963.000000, -1406.000000)" stroke="#D6AE4D" stroke-width="2">
            <g id="Our-Services" transform="translate(20.000000, 920.000000)">
                <g id="6" transform="translate(862.000000, 457.000000)">
                    <g id="Gum-Disease-Treatment" transform="translate(82.000000, 30.000000)">
                        <path d="M37.0270627,6.09519101 C40.3866289,14.6232809 32.2074723,33.5041798 29.6225566,39.0893483 C29.2814723,39.8259775 28.2710386,39.953618 27.7504843,39.3266517 L19.271906,28.9612584 L10.1766289,39.255191 C9.67255663,39.9086742 8.64197831,39.8039551 8.2867012,39.062382 C4.76780964,31.7244045 -8.46855181,1.85159551 9.25180964,1.85159551 C13.3874,1.85159551 20.8921711,4.88260674 20.8921711,4.88260674" id="Stroke-1"></path>
                        <path d="M14.3501277,11.2502921 C16.7226096,8.16534831 22.5201277,1.85164045 30.2327542,1.85164045" id="Stroke-3"></path>
                        <path d="M17.6618978,21.7849731 C17.6618978,21.3516129 22.2916699,13.3337528 32.260947,6.23173034" id="Stroke-5"></path>
                        <path d="M30.1798289,3.98435955 L34.0063831,8.11649438" id="Stroke-7"></path>
                        <path d="M34.0063373,8.11649438 L37.0266506,6.09537079" id="Stroke-9"></path>
                        <path d="M30.1798289,3.98435955 L35.7983349,0.224808989" id="Stroke-11"></path>
                        <path d="M18.4970723,16.8959326 C17.9788072,16.4541348 17.1936265,16.5080674 16.7435783,17.0168315 L15.5001084,18.4217753 C15.0500602,18.9305393 14.2648795,18.9844719 13.7466145,18.5426742 L13.4806145,18.2815506 C12.9623494,17.8393034 12.1771687,17.8936854 11.7271205,18.402 L11.7271205,18.4024494 C11.2766145,18.910764 11.332012,19.6815506 11.8502771,20.1237978 L12.1158193,20.3849213 C12.6340843,20.8267191 12.6894819,21.5975056 12.2389759,22.1062697 L10.9959639,23.5112135 C10.5454578,24.0199775 10.6008554,24.790764 11.1191205,25.2325618 C11.6373855,25.674809 12.4225663,25.620427 12.8726145,25.1116629 L14.1160843,23.7071685 C14.5661325,23.1984045 15.3513133,23.1440225 15.8695783,23.5862697 L16.7197711,24.3296404 C17.2380361,24.7714382 18.0232169,24.7175056 18.4737229,24.2087416 C18.9237711,23.6999775 18.8688313,22.929191 18.3505663,22.4873933 L17.694494,21.9134607" id="Stroke-13"></path>
                    </g>
                </g>
            </g>
        </g>
    </g>
</svg>