<svg xmlns="http://www.w3.org/2000/svg" width="41" height="38"><g stroke-width="2" stroke="#D6AE4D" fill="none" fill-rule="evenodd" stroke-linecap="round" stroke-linejoin="round"><path d="M25.419 33h-2.84c-.873 0-1.58.822-1.58 1.837v.326c0 1.015.708 1.837 1.58 1.837h2.839c.873 0 1.58-.822 1.58-1.837v-.326c0-1.015-.708-1.837-1.58-1.837zm3.937-2.643l-1.832 1.61c-.62.544-.702 1.514-.186 2.166l.249.314c.516.652 1.437.739 2.056.195l1.832-1.61c.619-.544.702-1.514.185-2.166l-.25-.314c-.516-.652-1.437-.74-2.056-.195zm3.17-5.45l-1.353 2.638c-.412.804-.065 1.775.776 2.169l.256.12c.84.394 1.856.062 2.269-.742l1.353-2.638c.412-.804.065-1.775-.776-2.17l-.256-.12c-.84-.394-1.856-.062-2.27.742zm1.307-6.474l-.776 3.089a1.9 1.9 0 0 0 1.367 2.305l.45.115c1 .256 2.036-.36 2.29-1.375l.776-3.09a1.9 1.9 0 0 0-1.367-2.305l-.45-.115c-1-.256-2.036.359-2.29 1.375z"/><path d="M34.359 10.973l-.347 3.51c-.12 1.213.686 2.303 1.799 2.433l.598.07c1.113.13 2.113-.747 2.233-1.96l.347-3.51c.12-1.213-.686-2.303-1.8-2.433l-.598-.07c-1.113-.13-2.113.747-2.233 1.96zm.64-7.75v3.554C35 8.004 35.975 9 37.177 9h.646C39.025 9 40 8.004 40 6.777V3.223C40 1.996 39.025 1 37.823 1h-.646C35.975 1 35 1.996 35 3.223zM19.419 33h-2.84c-.873 0-1.58.822-1.58 1.837v.326c0 1.015.708 1.837 1.58 1.837h2.839c.873 0 1.58-.822 1.58-1.837v-.326c0-1.015-.708-1.837-1.58-1.837zm-5.985-1.046l-1.988-1.64c-.626-.517-1.516-.38-1.988.305l-.172.25c-.472.686-.347 1.66.279 2.177l1.988 1.64c.626.517 1.516.38 1.988-.305l.172-.25c.472-.686.347-1.66-.28-2.177zm-3.613-4.505l-1.296-2.536c-.416-.815-1.43-1.146-2.262-.738l-.332.162c-.833.408-1.17 1.399-.754 2.214l1.296 2.536c.416.815 1.429 1.146 2.262.738l.332-.162c.833-.408 1.17-1.4.754-2.214zm-1.895-6.125l-.796-2.918c-.283-1.035-1.295-1.63-2.26-1.326l-.557.175c-.966.303-1.52 1.388-1.238 2.423l.796 2.918c.283 1.035 1.295 1.629 2.26 1.326l.557-.175c.966-.303 1.52-1.388 1.238-2.423zm-.945-7.72l-.386-2.872c-.148-1.1-1.123-1.865-2.18-1.71l-.753.1c-1.056.154-1.792 1.169-1.644 2.268l.386 2.872c.148 1.099 1.123 1.865 2.179 1.71l.753-.1c1.056-.154 1.792-1.17 1.644-2.268zM6 6.705v-3.4C6 2.027 5.053 1 3.885 1h-.77C1.947 1 1 2.027 1 3.295v3.4C1 7.973 1.947 9 3.115 9h.77C5.053 9 6 7.973 6 6.705z"/></g></svg>