<?xml version="1.0" encoding="UTF-8"?>
<svg width="41px" height="38px" viewBox="0 0 41 38" version="1.1" xmlns="http://www.w3.org/2000/svg" xmlns:xlink="http://www.w3.org/1999/xlink">
    <!-- Generator: Sketch 51.3 (57544) - http://www.bohemiancoding.com/sketch -->
    <title> Invisalign®</title>
    <desc>Created with Sketch.</desc>
    <defs></defs>
    <g id="Page-1" stroke="none" stroke-width="1" fill="none" fill-rule="evenodd" stroke-linecap="round" stroke-linejoin="round">
        <g id="Home-Final---2" transform="translate(-962.000000, -1136.000000)" stroke="#D6AE4D" stroke-width="2">
            <g id="Our-Services" transform="translate(20.000000, 920.000000)">
                <g id="3" transform="translate(863.000000, 185.000000)">
                    <g id="-Invisalign®" transform="translate(99.500000, 49.500000) scale(1, -1) translate(-99.500000, -49.500000) translate(80.000000, 31.000000)">
                        <path d="M24.4194616,4 L21.5805384,4 C20.7076719,4 20,3.17754378 20,2.16284701 L20,1.83715299 C20,0.822456219 20.7076719,1.32671651e-14 21.5805384,1.32671651e-14 L24.4194616,1.32671651e-14 C25.2923281,1.32671651e-14 26,0.822456219 26,1.83715299 L26,2.16284701 C26,3.17754378 25.2923281,4 24.4194616,4 Z" id="Stroke-1"></path>
                        <path d="M28.3563288,6.64290744 L26.5244339,5.03241582 C25.9055139,4.48832551 25.822538,3.51875382 26.3389255,2.86684612 L26.5880394,2.55241961 C27.1044268,1.90051191 28.0247979,1.81300225 28.6437178,2.35709256 L30.4756128,3.96758418 C31.0944396,4.51167449 31.1775086,5.48124618 30.661028,6.13315388 L30.4120073,6.44758039 C29.8955267,7.09948809 28.9751557,7.18699775 28.3563288,6.64290744 Z" id="Stroke-3"></path>
                        <path d="M31.526107,12.0922937 L30.1735222,9.4546589 C29.7612755,8.65093742 30.1087092,7.67984556 30.9494809,7.2858139 L31.2053375,7.16589537 C32.0460093,6.77176822 33.0617461,7.10393109 33.473893,7.90774806 L34.8264778,10.5452874 C35.2387245,11.3491043 34.8912908,12.3201007 34.0505191,12.7142279 L33.7946625,12.8341464 C32.9539907,13.2281781 31.9382539,12.8961107 31.526107,12.0922937 Z" id="Stroke-5"></path>
                        <path d="M32.8334153,18.5664013 L32.0579094,15.477459 C31.8027128,14.4612746 32.4147957,13.4293453 33.4250825,13.1726343 L33.8752979,13.0582146 C34.8855847,12.8016014 35.9114263,13.4173166 36.1665257,14.4335987 L36.9421288,17.522541 C37.1972282,18.5388232 36.5851453,19.5707525 35.5748585,19.8273657 L35.1246431,19.9417854 C34.1144536,20.1983986 33.0886119,19.5826834 32.8334153,18.5664013 Z" id="Stroke-7"></path>
                        <path d="M33.3585469,26.0269546 L33.0118141,22.5160577 C32.8919807,21.3028266 33.6973454,20.2135224 34.8105928,20.0829371 L35.4087569,20.0128741 C36.5220043,19.8822888 37.5216197,20.7599137 37.6414531,21.9730454 L37.9881859,25.4839423 C38.1080193,26.6971734 37.3026546,27.7863782 36.1894072,27.9169636 L35.5912431,27.9871259 C34.4779957,28.1177112 33.4783803,27.2400863 33.3585469,26.0269546 Z" id="Stroke-9"></path>
                        <path d="M34,33.7767333 L34,30.2231667 C34,28.9953747 34.9746568,28 36.1769913,28 L36.8230087,28 C38.0253432,28 39,28.9953747 39,30.2231667 L39,33.7767333 C39,35.0046253 38.0253432,36 36.8230087,36 L36.1769913,36 C34.9746568,36 34,35.0046253 34,33.7767333 Z" id="Stroke-11"></path>
                        <path d="M18.4194616,4 L15.5805384,4 C14.7076719,4 14,3.17754378 14,2.16284701 L14,1.83715299 C14,0.822456219 14.7076719,1.32671651e-14 15.5805384,1.32671651e-14 L18.4194616,1.32671651e-14 C19.2923281,1.32671651e-14 20,0.822456219 20,1.83715299 L20,2.16284701 C20,3.17754378 19.2923281,4 18.4194616,4 Z" id="Stroke-13"></path>
                        <path d="M12.4348309,5.04596826 L10.4469191,6.68672429 C9.82080371,7.20349546 8.93057176,7.06672382 8.45854736,6.38125421 L8.28614944,6.13097622 C7.81412504,5.4455066 7.93905373,4.47088282 8.56516913,3.95411164 L10.5530809,2.31335562 C11.1791963,1.79648373 12.0694282,1.93325536 12.5414526,2.61872498 L12.7138506,2.86900297 C13.185875,3.5545733 13.0609463,4.52919708 12.4348309,5.04596826 Z" id="Stroke-15"></path>
                        <path d="M8.82159074,9.55116864 L7.5259509,12.0874114 C7.10946437,12.9026894 6.09666669,13.2330297 5.26388567,12.8253437 L4.93227099,12.66304 C4.09948996,12.255354 3.76192274,11.2640512 4.17840926,10.4488672 L5.47414511,7.91253044 C5.89053563,7.09734646 6.90333331,6.76700617 7.73611433,7.17459816 L8.06772901,7.33699589 C8.90051004,7.74458788 9.23807726,8.73598467 8.82159074,9.55116864 Z" id="Stroke-17"></path>
                        <path d="M6.92621786,15.6769812 L6.12980616,18.5945177 C5.84719362,19.6299953 4.83477468,20.2237952 3.86862986,19.9209306 L3.31140846,19.7462314 C2.34526364,19.4433668 1.79117011,18.3583977 2.07378265,17.3230188 L2.87019435,14.4054823 C3.15280689,13.3700047 4.16522583,12.7762048 5.13137065,13.0790694 L5.68850005,13.2537686 C6.65473687,13.5566332 7.2088304,14.6416023 6.92621786,15.6769812 Z" id="Stroke-19"></path>
                        <path d="M5.98112105,23.3973402 L5.59495964,26.2692018 C5.44716837,27.3680292 4.47162144,28.1341059 3.41590598,27.980372 L2.66280226,27.8706282 C1.60717578,27.7168016 0.871155693,26.7014165 1.01885798,25.6025891 L1.40510837,22.7307275 C1.55281066,21.6319001 2.52844656,20.8658233 3.58407305,21.0196499 L4.33717677,21.1293011 C5.39289223,21.2831277 6.12891231,22.2985128 5.98112105,23.3973402 Z" id="Stroke-21"></path>
                        <path d="M5,30.2947156 L5,33.7051821 C5,34.972523 4.05329236,36 2.88546006,36 L2.11453994,36 C0.946707637,36 1.8189894e-12,34.972523 1.8189894e-12,33.7051821 L1.8189894e-12,30.2947156 C1.8189894e-12,29.0273747 0.946707637,28 2.11453994,28 L2.88546006,28 C4.05329236,28 5,29.0273747 5,30.2947156 Z" id="Stroke-23"></path>
                    </g>
                </g>
            </g>
        </g>
    </g>
</svg>