<?xml version="1.0" encoding="UTF-8"?>
<svg width="16px" height="16px" viewBox="0 0 16 16" version="1.1" xmlns="http://www.w3.org/2000/svg" xmlns:xlink="http://www.w3.org/1999/xlink">
    <!-- Generator: Sketch 51.3 (57544) - http://www.bohemiancoding.com/sketch -->
    <title>Name</title>
    <desc>Created with Sketch.</desc>
    <defs></defs>
    <g id="Page-1" stroke="none" stroke-width="1" fill="none" fill-rule="evenodd">
        <g id="Home-Final---2" transform="translate(-568.000000, -842.000000)" fill="#D4CFC2" fill-rule="nonzero">
            <g id="Book-Appointment" transform="translate(20.000000, 780.000000)">
                <g id="Form" transform="translate(528.000000, 46.000000)">
                    <g id="1">
                        <path d="M32.986,28.4206667 C32.53,28.9486667 30.842,30.6666667 28,30.6666667 C25.1586667,30.6666667 23.4706667,28.9486667 23.0146667,28.4206667 C22.9367183,28.3319283 22.9129871,28.2079141 22.9526667,28.0966667 C23.2366667,27.3313333 23.8126667,26.8766667 24.96,26.56 C26.0333333,26.26 26.3666667,25.9666667 26.4466667,25.4333333 C26.4673333,25.3333333 26.414,25.2333333 26.3473333,25.1533333 C25.9866667,24.7666667 25.8066667,24.0133333 25.8066667,23.7 C25.5406667,23.3333333 25.5,23.1133333 25.3606667,22.5333333 C25.2606667,22.1 25.4733333,21.9266667 25.594,21.8666667 C25.634,21.8466667 25.6533333,21.8 25.64,21.7533333 C25.3873333,20.9333333 25.3873333,19.6733333 26.14,19.3933333 C26.6,18.8133333 27.3873333,18.3133333 28.9866667,18.9933333 C29.4406667,18.9066667 30.8606667,19.44 30.354,21.7666667 C30.3473333,21.8 30.3666667,21.8466667 30.4006667,21.86 C30.5206667,21.92 30.7473333,22.0933333 30.64,22.5333333 C30.5,23.1133333 30.46,23.3333333 30.194,23.7 C30.194,24.0133333 30.014,24.7666667 29.6533333,25.1533333 C29.5866667,25.2333333 29.5333333,25.3333333 29.554,25.4333333 C29.634,25.9666667 29.9673333,26.26 31.0406667,26.56 C32.188,26.8766667 32.764,27.3313333 33.048,28.0966667 C33.0876795,28.2079141 33.0639484,28.3319283 32.986,28.4206667 M28,16 C23.582,16 20,19.582 20,24 C20,28.4186667 23.582,32 28,32 C32.4186667,32 36,28.4186667 36,24 C36,19.582 32.4186667,16 28,16" id="Name"></path>
                    </g>
                </g>
            </g>
        </g>
    </g>
</svg>