<svg xmlns="http://www.w3.org/2000/svg" width="16" height="16"><path d="M12.986 12.42c-.456.528-2.144 2.246-4.986 2.246s-4.53-1.718-4.985-2.246c-.078-.09-.102-.213-.062-.324.284-.765.86-1.22 2.007-1.537 1.073-.3 1.407-.593 1.487-1.127.02-.1-.033-.2-.1-.28-.36-.387-.54-1.14-.54-1.453-.266-.367-.307-.587-.446-1.167-.1-.433.113-.606.233-.667.04-.02.059-.067.046-.113-.253-.82-.253-2.08.5-2.36.46-.58 1.247-1.08 2.847-.4.454-.086 1.874.447 1.367 2.773-.007.033.013.08.047.093.12.06.347.233.239.673-.14.58-.18.8-.446 1.167 0 .313-.18 1.066-.54 1.453-.067.08-.12.18-.1.28.08.534.413.827 1.487 1.127 1.147.316 1.723.77 2.007 1.537.04.11.016.235-.062.324M8 0a8 8 0 1 0 0 16A8 8 0 1 0 8 0" fill="#D4CFC2" fill-rule="nonzero"/></svg>