<?xml version="1.0" encoding="UTF-8"?>
<svg width="47px" height="42px" viewBox="0 0 47 42" version="1.1" xmlns="http://www.w3.org/2000/svg" xmlns:xlink="http://www.w3.org/1999/xlink">
    <!-- Generator: Sketch 51.3 (57544) - http://www.bohemiancoding.com/sketch -->
    <title>Orthodontics</title>
    <desc>Created with Sketch.</desc>
    <defs></defs>
    <g id="Page-1" stroke="none" stroke-width="1" fill="none" fill-rule="evenodd" stroke-linecap="round" stroke-linejoin="round">
        <g id="Home-Final---2" transform="translate(-713.000000, -1134.000000)" stroke="#D6AE4D" stroke-width="2">
            <g id="Our-Services" transform="translate(20.000000, 920.000000)">
                <g id="2" transform="translate(616.000000, 185.000000)">
                    <g id="Orthodontics" transform="translate(78.000000, 30.000000)">
                        <path d="M3.77104592,14.2714353 C2.90272959,6.58861176 4.60584184,0.2352 12.6158418,0.2352 C16.763648,0.2352 24.2685459,3.38861176 24.2685459,3.38861176" id="Stroke-1"></path>
                        <path d="M39.8105357,20.0649412 C37.8755357,27.9162353 34.5358929,35.8668235 33.0467602,39.2254118 C32.7046684,39.9967059 31.69125,40.1303529 31.1691582,39.4734118 L22.3734949,28.7218824 L13.543852,39.3985882 C13.0382908,40.0828235 12.0042092,39.9731765 11.6478827,39.1967059 C9.9309949,35.4592941 5.90762755,26.1374118 4.27431122,17.5491765" id="Stroke-3"></path>
                        <path d="M17.7293112,10.0760471 C20.108801,6.84592941 25.9234439,0.235105882 33.658852,0.235105882 C41.7202806,0.235105882 42.2419133,8.48357647 40.3803827,17.5489882" id="Stroke-5"></path>
                        <path d="M0.229591837,17.5488471 L16.8883163,17.5488471" id="Stroke-7"></path>
                        <path d="M27.9514286,17.5488471 L44.6101531,17.5488471" id="Stroke-9"></path>
                        <path d="M21.171949,17.5488471 L23.7089388,17.5488471" id="Stroke-11"></path>
                        <polyline id="Stroke-13" points="16.8881327 17.5488471 16.8881327 23.4128471 21.1305306 23.4128471 21.1305306 12.9074353 16.8881327 12.9074353 16.8881327 15.4674353"></polyline>
                        <polyline id="Stroke-15" points="27.9514286 17.5488471 27.9514286 23.4128471 23.7090306 23.4128471 23.7090306 19.5432 22.212551 19.5432"></polyline>
                        <polyline id="Stroke-17" points="23.7089388 17.5488471 23.7089388 12.9074353 27.9513367 12.9074353 27.9513367 15.4674353"></polyline>
                    </g>
                </g>
            </g>
        </g>
    </g>
</svg>