<svg xmlns="http://www.w3.org/2000/svg" width="47" height="42"><g stroke-width="2" stroke="#D6AE4D" fill="none" fill-rule="evenodd" stroke-linecap="round" stroke-linejoin="round"><path d="M4.77 15.27c-.868-7.683.835-14.036 8.845-14.036 4.148 0 11.653 3.153 11.653 3.153M40.81 21.065c-1.935 7.85-5.275 15.802-6.764 19.16a1.1 1.1 0 0 1-1.878.248l-8.796-10.752-8.83 10.677a1.1 1.1 0 0 1-1.896-.202c-1.717-3.737-5.74-13.06-7.374-21.647m13.455-7.473c2.379-3.23 8.194-9.84 15.93-9.84 8.06 0 8.583 8.249 6.722 17.314m-40.15 0h16.659"/><path d="M28.95 18.549H45.6m-23.438 0h2.537m-6.82 0v5.864h4.242V13.907h-4.242v2.56m11.063 2.082v5.864h-4.242v-3.87h-1.496"/><path d="M24.709 18.549v-4.642h4.242v2.56"/></g></svg>