<?xml version="1.0" encoding="UTF-8"?>
<svg width="14px" height="14px" viewBox="0 0 14 14" version="1.1" xmlns="http://www.w3.org/2000/svg" xmlns:xlink="http://www.w3.org/1999/xlink">
    <!-- Generator: Sketch 51.3 (57544) - http://www.bohemiancoding.com/sketch -->
    <title>Phone</title>
    <desc>Created with Sketch.</desc>
    <defs></defs>
    <g id="Page-1" stroke="none" stroke-width="1" fill="none" fill-rule="evenodd">
        <g id="Home-Final---2" transform="translate(-1010.000000, -843.000000)" fill="#D4CFC2" fill-rule="nonzero">
            <g id="Book-Appointment" transform="translate(20.000000, 780.000000)">
                <g id="Form" transform="translate(528.000000, 46.000000)">
                    <g id="3" transform="translate(442.000000, 0.000000)">
                        <path d="M32.9395115,26.8846801 C31.4899439,25.4356659 30.9468665,25.5138333 29.0603869,26.5136765 C27.9129827,27.1215157 27.4859874,26.8479297 25.8176721,25.1807468 C24.1499402,23.5123971 23.8763599,23.0859762 24.4847699,21.9385483 C25.4851757,20.0520299 25.5639249,19.5101079 24.1131906,18.0610937 C23.2901162,17.237419 23.0264524,17 22.4454587,17 C22.0219633,17 21.5716349,17.2782527 20.8908923,17.9590094 C19.8164039,19.0329366 19.7312382,19.9551956 20.5414794,21.7536299 C21.1837224,23.1804772 22.1631285,25.0599956 24.0507746,26.9470974 C25.9378375,28.8341992 27.8173171,29.8147921 29.2453016,30.4564651 C30.7199523,31.1185549 31.784524,31.3588906 33.0410104,30.1064616 C33.723503,29.427455 34,28.9759506 34,28.5524464 C34,27.9720241 33.7625859,27.7089382 32.9395115,26.8852634" id="Phone"></path>
                    </g>
                </g>
            </g>
        </g>
    </g>
</svg>