<?xml version="1.0" encoding="UTF-8"?>
<svg width="47px" height="33px" viewBox="0 0 47 33" version="1.1" xmlns="http://www.w3.org/2000/svg" xmlns:xlink="http://www.w3.org/1999/xlink">
    <!-- Generator: Sketch 51.3 (57544) - http://www.bohemiancoding.com/sketch -->
    <title>Quote</title>
    <desc>Created with Sketch.</desc>
    <defs></defs>
    <g id="Page-1" stroke="none" stroke-width="1" fill="none" fill-rule="evenodd">
        <g id="Home-Final---2" transform="translate(-720.000000, -1799.000000)" fill="#F6D482">
            <g id="What-Our-Patients--are-Saying" transform="translate(20.000000, 1699.000000)">
                <path d="M714.169118,113.894737 C715.858669,114.666671 717.241008,115.843852 718.316176,117.426316 C719.391345,119.00878 719.928922,120.880691 719.928922,123.042105 C719.928922,125.821067 718.949765,128.175429 716.991422,130.105263 C715.033078,132.035097 712.709981,133 710.022059,133 C707.257339,133 704.895843,132.035097 702.9375,130.105263 C700.979157,128.175429 700,125.821067 700,123.042105 C700,120.417531 701.228746,117.561419 703.686275,114.473684 L715.666667,100 L721.772059,104.978947 L714.169118,113.894737 Z M739.397059,113.894737 C741.08661,114.666671 742.468949,115.843852 743.544118,117.426316 C744.619286,119.00878 745.156863,120.880691 745.156863,123.042105 C745.156863,125.821067 744.177706,128.175429 742.219363,130.105263 C740.26102,132.035097 737.937922,133 735.25,133 C732.48528,133 730.123784,132.035097 728.165441,130.105263 C726.207098,128.175429 725.227941,125.821067 725.227941,123.042105 C725.227941,120.417531 726.456687,117.561419 728.914216,114.473684 L740.894608,100 L747,104.978947 L739.397059,113.894737 Z" id="Quote"></path>
            </g>
        </g>
    </g>
</svg>